<?xml version="1.0" encoding="UTF-8"?>
<svg version="1.1" xmlns="http://www.w3.org/2000/svg" width="500" height="500">
<path d="M0 0 C0.7425 0.4640625 1.485 0.928125 2.25 1.40625 C3.013125 1.8703125 3.77625 2.334375 4.5625 2.8125 C5.119375 3.1734375 5.67625 3.534375 6.25 3.90625 C6.25 4.56625 6.25 5.22625 6.25 5.90625 C6.91 5.90625 7.57 5.90625 8.25 5.90625 C10.76236989 11.03795206 11.62000733 14.73954235 11.578125 20.5546875 C11.57625183 21.25268463 11.57437866 21.95068176 11.57244873 22.66983032 C11.56577675 24.13035938 11.55196027 25.59087207 11.53125 27.05126953 C11.49979238 29.29606563 11.49024299 31.54016046 11.484375 33.78515625 C11.41385699 44.74239301 11.41385699 44.74239301 10.25 45.90625 C7.54232389 46.44348732 4.85067531 46.91588394 2.125 47.34375 C1.29202393 47.47571777 0.45904785 47.60768555 -0.39916992 47.74365234 C-8.24016551 48.92907862 -16.10224762 49.6466227 -24.00634766 50.25952148 C-27.67438319 50.54441434 -31.2793858 50.82771735 -34.91015625 51.43359375 C-39.22744732 52.15215251 -43.57838818 52.25491879 -47.9453125 52.42382812 C-52.06307783 52.6244178 -56.02655116 53.09014668 -60.0859375 53.81640625 C-68.75158588 55.32916248 -77.49913963 56.06595733 -86.25 56.90625 C-87.95316193 57.07253888 -89.65628718 57.23920384 -91.359375 57.40625 C-93.80387579 57.64580532 -96.24840272 57.88496859 -98.6932373 58.12109375 C-104.83336051 58.71426068 -110.97148179 59.32688383 -117.10949707 59.94140625 C-118.03745213 60.03425903 -118.96540718 60.12711182 -119.92148209 60.22277832 C-122.19766046 60.45054492 -124.47383293 60.67837045 -126.75 60.90625 C-125.7093231 60.90440641 -124.6686462 60.90256283 -123.59643364 60.90066338 C-98.28334201 60.85627922 -72.97025542 60.82340556 -47.6571331 60.80262566 C-35.41593926 60.79230975 -23.17477111 60.77824339 -10.93359375 60.75537109 C-0.26513595 60.73544687 10.40330324 60.72253585 21.07177913 60.71807301 C26.72149196 60.715464 32.37115154 60.70932509 38.02084732 60.69478989 C43.33787169 60.68122131 48.65482085 60.67702592 53.97186089 60.68003464 C55.92376425 60.67948415 57.87567012 60.67550242 59.82755852 60.66783905 C62.49240076 60.65788921 65.15695905 60.66028132 67.82180786 60.66574097 C68.59419332 60.65991528 69.36657877 60.6540896 70.16236985 60.64808738 C77.3660113 60.68797971 82.60280629 62.43555498 88.25 66.90625 C101.60019635 81.78218308 96.25 95.766762 96.25 117.90625 C71.5 118.23625 46.75 118.56625 21.25 118.90625 C21.25 121.87625 21.25 124.84625 21.25 127.90625 C25.09088876 130.4668425 28.21498621 130.17696439 32.6652832 130.14575195 C33.52415131 130.14776611 34.38301941 130.14978027 35.26791382 130.15185547 C37.13401785 130.15540238 39.00013389 130.15463214 40.86623573 130.15007973 C43.8212992 130.14449246 46.77596926 130.15363598 49.73100281 130.1672821 C58.13310456 130.20443298 66.53507431 130.22295364 74.93725586 130.21166992 C80.07617651 130.20581446 85.21454534 130.2241029 90.3533535 130.25755882 C92.31051275 130.26550879 94.2677322 130.26424133 96.22487831 130.25353432 C98.96603836 130.23918622 101.70546833 130.25549996 104.4465332 130.27856445 C105.25246414 130.26679672 106.05839508 130.25502899 106.88874817 130.24290466 C110.85031433 130.30814638 113.48689145 130.67537067 116.67521667 133.13298035 C121.06624282 137.86250435 121.50068225 141.45762486 121.54052734 147.80444336 C121.54724457 148.47828568 121.55396179 149.15212799 121.56088257 149.84638977 C121.57980425 152.06303376 121.5837835 154.27937414 121.5859375 156.49609375 C121.59236862 158.04399233 121.59909721 159.59188971 121.60610962 161.13978577 C121.61806714 164.38024717 121.62179193 167.62060208 121.62060547 170.86108398 C121.62040216 175.00497926 121.64772251 179.14818963 121.68214989 183.29192257 C121.70442933 186.48762627 121.70844273 189.68316527 121.70738602 192.87893867 C121.7097397 194.40631029 121.71855021 195.9336866 121.73405075 197.46098137 C121.75373697 199.60069153 121.74786468 201.73892614 121.73583984 203.87866211 C121.73868988 205.0937999 121.74153992 206.30893768 121.74447632 207.56089783 C121.14905125 211.58921316 119.76609104 213.74137004 117.25 216.90625 C112.30190323 220.49362016 108.13137299 221.02658453 102.12036133 221.09570312 C100.26372612 221.12077942 100.26372612 221.12077942 98.36958313 221.1463623 C97.3825109 221.15638527 97.3825109 221.15638527 96.37549782 221.16661072 C94.31231843 221.18770151 92.2492915 221.21471492 90.186203 221.24328613 C85.06633123 221.31298527 79.94635176 221.37263904 74.82635498 221.43231201 C70.49230434 221.48316974 66.15833908 221.53794576 61.82440758 221.59812927 C59.78748964 221.62476517 57.7505639 221.64553583 55.71357727 221.6661377 C54.48527695 221.68285522 53.25697662 221.69957275 51.99145508 221.71679688 C50.36074821 221.73558899 50.36074821 221.73558899 48.69709778 221.75476074 C46.30369341 221.63186811 46.30369341 221.63186811 45.25 222.90625 C45.00266863 227.04901875 45.00266863 227.04901875 46.25 230.90625 C46.86165512 230.91655746 47.47331024 230.92686493 48.10350037 230.93748474 C54.44582316 231.04531745 60.78799714 231.15993342 67.13012695 231.27856445 C69.49988708 231.3219881 71.86968 231.36365749 74.23950195 231.40356445 C77.63763333 231.46108768 81.03559843 231.52483303 84.43359375 231.58984375 C85.50024765 231.60655624 86.56690155 231.62326874 87.6658783 231.64048767 C88.64681961 231.66043289 89.62776093 231.68037811 90.63842773 231.70092773 C91.50668686 231.71647202 92.37494598 231.7320163 93.26951599 231.74803162 C95.25 231.90625 95.25 231.90625 96.25 232.90625 C96.37599397 235.46736371 96.43868259 237.9999643 96.453125 240.5625 C96.45882507 241.33879761 96.46452515 242.11509521 96.47039795 242.91491699 C96.47986878 244.56598543 96.48639016 246.21707294 96.49023438 247.86816406 C96.49985355 250.36818825 96.53081901 252.86735958 96.5625 255.3671875 C96.62668634 264.95050209 96.62676091 272.88934807 91.0625 281.15625 C86.03191642 286.07504283 80.44558375 290.01687136 73.21750355 290.0460577 C72.39438264 290.05174894 71.57126173 290.05744018 70.72319776 290.06330389 C69.36709528 290.0650737 69.36709528 290.0650737 67.9835968 290.06687927 C66.54264114 290.074511 66.54264114 290.074511 65.07257527 290.08229691 C61.83915646 290.09804928 58.60576005 290.10655381 55.37231445 290.11499023 C53.05975705 290.1245264 50.74720109 290.13441745 48.43464661 290.14463806 C40.8275421 290.17604885 33.22042656 290.19629187 25.61328125 290.21484375 C24.31974598 290.21814107 23.0262107 290.22143839 21.69347739 290.22483563 C9.49778308 290.25561601 -2.697912 290.28248937 -14.89363384 290.29925442 C-17.71807043 290.30320384 -20.54250694 290.30720685 -23.36694336 290.3112793 C-24.41992851 290.31279184 -24.41992851 290.31279184 -25.49418608 290.31433494 C-36.86331891 290.33133804 -48.23223393 290.3724438 -59.60126045 290.42330229 C-71.27668567 290.47510129 -82.95198717 290.50371729 -94.62752563 290.5114513 C-101.18172212 290.51641106 -107.73553148 290.53152392 -114.28961754 290.5711956 C-120.45634416 290.60803046 -126.622462 290.61648145 -132.78927803 290.60318947 C-135.05158802 290.60324347 -137.31392478 290.6135601 -139.57613373 290.6349411 C-142.66771728 290.6625968 -145.75707669 290.65312445 -148.84867859 290.63450623 C-149.7415933 290.65130115 -150.634508 290.66809608 -151.55448073 290.68539995 C-158.24541173 290.58487118 -161.8551867 288.34679424 -166.75 283.90625 C-167.53375 283.24625 -168.3175 282.58625 -169.125 281.90625 C-173.57041981 276.43496409 -173.36372902 269.6270858 -172.75 262.90625 C-170.96215081 257.09574013 -166.60727792 253.357942 -161.75 249.90625 C-157.77705229 247.97862846 -154.55473257 247.65127992 -150.15893555 247.63500977 C-148.18614876 247.61972984 -148.18614876 247.61972984 -146.17350769 247.60414124 C-145.12620515 247.60272975 -145.12620515 247.60272975 -144.05774498 247.60128975 C-141.85804489 247.59760826 -139.65878854 247.58083245 -137.45918274 247.56053162 C-131.20765468 247.50529802 -124.95606159 247.47450445 -118.7043457 247.44995117 C-114.87291073 247.43400063 -111.04179074 247.40370324 -107.21051979 247.36518669 C-105.75742775 247.35360158 -104.3042792 247.34760691 -102.85114098 247.34750557 C-90.76410442 247.71739575 -90.76410442 247.71739575 -80.24369812 242.56080627 C-75.99261505 237.81010874 -74.29311711 233.40897851 -74.4140625 227.03515625 C-74.91582369 223.85539058 -76.28531531 221.34122123 -77.875 218.5703125 C-78.75 216.90625 -78.75 216.90625 -78.75 214.90625 C-80.07258472 214.21850595 -81.40986503 213.55913627 -82.75 212.90625 C-84.11125755 212.13656639 -84.11125755 212.13656639 -85.50001526 211.35133362 C-91.40217242 208.86151012 -97.90132934 209.53210227 -104.18725586 209.59741211 C-105.65311882 209.60153693 -107.11898614 209.60430336 -108.58485413 209.6058197 C-111.73166688 209.61189621 -114.87824128 209.6273681 -118.02497673 209.65019035 C-123.00545834 209.68609836 -127.98585557 209.69998497 -132.96644592 209.71083069 C-142.64179089 209.73492672 -152.31696394 209.78161373 -161.99221039 209.83042145 C-174.30377659 209.89130372 -186.61536383 209.94097795 -198.92704111 209.97241598 C-203.87323709 209.98576691 -208.81923682 210.00960528 -213.7653445 210.0418185 C-216.84787823 210.0599867 -219.93039987 210.06983988 -223.01297569 210.07758522 C-224.4367524 210.0829042 -225.86052128 210.09168628 -227.28425217 210.10428619 C-244.33535035 210.25117755 -244.33535035 210.25117755 -249.95703125 206.390625 C-256.32447771 199.51192372 -258.35303773 194.53846669 -258.09375 185.03125 C-257.36460073 178.40262024 -253.78703246 174.57338126 -249.01953125 170.16796875 C-242.85772236 166.74238481 -235.59073669 166.62033587 -228.70117188 166.7109375 C-227.84624649 166.71385803 -226.99132111 166.71677856 -226.11048889 166.7197876 C-224.27066193 166.72734611 -222.43084911 166.73952173 -220.59107971 166.75592041 C-217.67262863 166.78165672 -214.75436135 166.79453153 -211.83581543 166.80419922 C-204.59058103 166.83081205 -197.34552315 166.87926556 -190.10040283 166.92700195 C-183.96616075 166.96657694 -177.83198407 166.99780744 -171.69764709 167.01812744 C-168.83440256 167.03101084 -165.97143195 167.0560224 -163.10827637 167.08154297 C-161.33846264 167.08881385 -159.56864646 167.09551658 -157.79882812 167.1015625 C-157.01310928 167.11189514 -156.22739044 167.12222778 -155.41786194 167.13287354 C-148.84045301 167.13411294 -142.22942172 166.79276652 -136.875 162.71875 C-132.3905559 156.78345634 -130.75431167 151.2252058 -131.75 143.90625 C-132.54780541 141.40162452 -133.56631652 139.27361695 -134.75 136.90625 C-135.08 135.91625 -135.41 134.92625 -135.75 133.90625 C-143.36155484 129.82831265 -152.41940663 130.54932351 -160.76953125 130.68359375 C-162.20056557 130.69429536 -163.6316131 130.70334414 -165.06266785 130.71083069 C-168.80088534 130.73343912 -172.53871765 130.77242639 -176.2767334 130.8168335 C-182.27544738 130.88747256 -188.27415355 130.94239504 -194.27316856 130.97918892 C-196.35889949 130.99580981 -198.4441723 131.025354 -200.52973938 131.05589294 C-201.79843369 131.06572708 -203.06712799 131.07556122 -204.37426758 131.08569336 C-205.48772049 131.0991832 -206.6011734 131.11267303 -207.74836731 131.12657166 C-210.81120716 130.90175736 -212.98615764 130.20666568 -215.75 128.90625 C-215.80084651 121.07750227 -215.83579517 113.24879739 -215.85986328 105.41992188 C-215.86876745 102.75838452 -215.88353257 100.09706385 -215.90087891 97.43554688 C-215.92522721 93.60283698 -215.93650621 89.77027332 -215.9453125 85.9375 C-215.95563507 84.75385864 -215.96595764 83.57021729 -215.97659302 82.35070801 C-215.978492 68.26433574 -215.978492 68.26433574 -212.33203125 62.76953125 C-206.00412675 57.22388426 -198.68564192 55.14171514 -190.75 52.90625 C-189.12754876 52.44159966 -187.50515522 51.97674783 -185.8828125 51.51171875 C-183.2598252 50.76257919 -180.63605011 50.016802 -178.00976562 49.27929688 C-171.48059086 47.43725403 -165.01719159 45.43071987 -158.5625 43.34375 C-151.27274905 40.98843293 -143.96605512 38.8145732 -136.57080078 36.81787109 C-130.63831082 35.19729487 -124.78909586 33.35898256 -118.9375 31.46875 C-111.96858621 29.21995664 -104.98795594 27.07231165 -97.9375 25.09375 C-88.58614969 22.46871382 -79.29143843 19.67186566 -70 16.84375 C-69.27564758 16.6232901 -68.55129517 16.4028302 -67.80499268 16.1756897 C-67.08640076 15.95698212 -66.36780884 15.73827454 -65.62744141 15.51293945 C-64.21388203 15.08279626 -62.8003081 14.65270091 -61.38671875 14.22265625 C-60.70583191 14.01550491 -60.02494507 13.80835358 -59.32342529 13.59492493 C-53.25204615 11.75018849 -47.16595423 9.96173729 -41.0703125 8.19921875 C-37.44276048 7.13234411 -33.84334602 5.98466896 -30.2421875 4.83203125 C-29.07937256 4.46352051 -27.91655762 4.09500977 -26.71850586 3.71533203 C-24.41936836 2.98503834 -22.1231136 2.2455855 -19.83032227 1.49560547 C-6.69016725 -2.66086198 -6.69016725 -2.66086198 0 0 Z " fill="#F9F9F9" transform="translate(317.75,88.09375)"/>
<path d="M0 0 C1.3331147 -0.00087616 1.3331147 -0.00087616 2.69316101 -0.00177002 C5.60444431 0.00099669 8.51467882 0.03202121 11.42578125 0.06347656 C13.45458416 0.07094399 15.48339431 0.07663455 17.51220703 0.08062744 C22.83225688 0.09584422 28.15186463 0.13509191 33.47174072 0.17944336 C39.86528895 0.22770647 46.25898563 0.24594891 52.65266418 0.26925659 C62.34817664 0.30794526 72.04272049 0.384627 81.73828125 0.45410156 C81.73828125 19.92410156 81.73828125 39.39410156 81.73828125 59.45410156 C59.67843612 59.65464561 59.67843612 59.65464561 50.234375 59.69824219 C43.8043134 59.72806651 37.37460972 59.76324904 30.94482422 59.83129883 C25.75765449 59.88585029 20.57086887 59.91557088 15.3834343 59.92848778 C13.40996636 59.93768623 11.43651812 59.95564846 9.46321487 59.98275185 C-10.19769174 60.24191733 -10.19769174 60.24191733 -18.26171875 54.45410156 C-19.16921875 53.89722656 -20.07671875 53.34035156 -21.01171875 52.76660156 C-28.35490481 45.21943811 -30.60474753 37.5856695 -30.64453125 27.31152344 C-30.47438548 19.97398689 -28.32124744 14.83328251 -23.4296875 9.43066406 C-16.37192124 2.83227904 -9.63691163 -0.16856849 0 0 Z " fill="#010101" transform="translate(342.26171875,233.5458984375)"/>
<path d="M0 0 C3.93472545 1.59601314 6.6084335 3.41265025 9 7 C9.58760427 11.50242236 9.50290275 15.68686505 7.875 19.9375 C4.57819731 23.56398296 1.34653897 24.77965726 -3.4375 25.5625 C-8.18913722 24.81224149 -10.89129113 22.60926369 -14 19 C-15.2517847 15.24464589 -15.77373976 11.88289586 -15 8 C-11.04810161 1.64048352 -7.57256804 -0.6207023 0 0 Z " fill="#FAFAFA" transform="translate(344,251)"/>
<path d="M0 0 C-2.82185418 1.41092709 -5.18634926 1.1325354 -8.34228516 1.1418457 C-8.99296967 1.14532013 -9.64365417 1.14879456 -10.3140564 1.15237427 C-11.72944914 1.15973288 -13.14485344 1.1650777 -14.56026077 1.16866493 C-16.80584275 1.17583483 -19.05120675 1.19150769 -21.29672241 1.21000671 C-27.68232119 1.2624332 -34.0678042 1.31039285 -40.45361328 1.32592773 C-44.35948939 1.33605258 -48.26482199 1.36549552 -52.17048264 1.40724754 C-53.65426889 1.41950477 -55.13813213 1.42468849 -56.62196732 1.42244911 C-64.60711859 1.41336857 -71.17269256 1.43953506 -78 6 C-83.16370344 11.4354773 -84.46397281 15.80729115 -84.31640625 23.17578125 C-83.6924845 28.74486055 -81.52473972 32.55149727 -77.5 36.375 C-73.89568667 38.71780366 -71.26389439 40.24848497 -66.90971851 40.25726891 C-66.09915684 40.2637178 -65.28859516 40.27016669 -64.453471 40.276811 C-63.12610666 40.2721652 -63.12610666 40.2721652 -61.77192688 40.26742554 C-60.82747513 40.27195665 -59.88302337 40.27648776 -58.90995187 40.28115618 C-55.73720043 40.29384198 -52.56461974 40.2921771 -49.3918457 40.29052734 C-47.12017088 40.29651008 -44.8484981 40.30331504 -42.576828 40.31088257 C-36.39896081 40.32857817 -30.22114899 40.33323952 -24.04325891 40.33451414 C-18.88684445 40.33641187 -13.73044292 40.34376817 -8.57403344 40.35085833 C2.89816618 40.36622308 14.3703297 40.37219504 25.84253695 40.37084763 C26.5308938 40.37076772 27.21925065 40.3706878 27.9284668 40.37060547 C28.96226654 40.37048283 28.96226654 40.37048283 30.01695112 40.37035771 C41.17836599 40.36954537 52.33964573 40.38866908 63.50102153 40.4168822 C74.96744451 40.44563704 86.43377428 40.45905506 97.90023929 40.45769465 C104.33529982 40.4571848 110.77020754 40.46288067 117.20523643 40.48405075 C123.26027682 40.50342584 129.31501854 40.50356227 135.3700695 40.48901749 C137.59001349 40.48692723 139.80997613 40.49164311 142.02988815 40.5037384 C145.06594479 40.51920619 148.10097369 40.50987193 151.13700867 40.49447632 C152.4476426 40.50990701 152.4476426 40.50990701 153.78475398 40.52564943 C159.31900535 40.46384545 163.26971186 39.33081958 168.18268329 36.75995982 C169.08225506 36.38377971 169.08225506 36.38377971 170 36 C170.66 36.33 171.32 36.66 172 37 C167.57649258 40.04730511 164.38599692 42.11792831 158.96750355 42.1398077 C158.14438264 42.14549894 157.32126173 42.15119018 156.47319776 42.15705389 C155.11709528 42.1588237 155.11709528 42.1588237 153.7335968 42.16062927 C152.29264114 42.168261 152.29264114 42.168261 150.82257527 42.17604691 C147.58915646 42.19179928 144.35576005 42.20030381 141.12231445 42.20874023 C138.80975705 42.2182764 136.49720109 42.22816745 134.18464661 42.23838806 C126.5775421 42.26979885 118.97042656 42.29004187 111.36328125 42.30859375 C110.06974598 42.31189107 108.7762107 42.31518839 107.44347739 42.31858563 C95.24778308 42.34936601 83.052088 42.37623937 70.85636616 42.39300442 C68.03192957 42.39695384 65.20749306 42.40095685 62.38305664 42.4050293 C61.33007149 42.40654184 61.33007149 42.40654184 60.25581392 42.40808494 C48.88668109 42.42508804 37.51776607 42.4661938 26.14873955 42.51705229 C14.47331433 42.56885129 2.79801283 42.59746729 -8.87752563 42.6052013 C-15.43172212 42.61016106 -21.98553148 42.62527392 -28.53961754 42.6649456 C-34.70634416 42.70178046 -40.872462 42.71023145 -47.03927803 42.69693947 C-49.30158802 42.69699347 -51.56392478 42.7073101 -53.82613373 42.7286911 C-56.91771728 42.7563468 -60.00707669 42.74687445 -63.09867859 42.72825623 C-63.9915933 42.74505115 -64.884508 42.76184608 -65.80448073 42.77914995 C-72.49541173 42.67862118 -76.1051867 40.44054424 -81 36 C-81.78375 35.34 -82.5675 34.68 -83.375 34 C-87.82041981 28.52871409 -87.61372902 21.7208358 -87 15 C-85.21215081 9.18949013 -80.85727792 5.451692 -76 2 C-72.02144956 0.07332469 -68.74605819 -0.27310556 -64.34545898 -0.3347168 C-63.69766479 -0.34636871 -63.04987061 -0.35802063 -62.38244629 -0.37002563 C-60.25368775 -0.40583977 -58.12504222 -0.42782857 -55.99609375 -0.44921875 C-54.51065587 -0.47048746 -53.02522786 -0.49245543 -51.53981018 -0.51509094 C-48.43226563 -0.56040623 -45.32473133 -0.59922073 -42.21704102 -0.63305664 C-38.23671026 -0.67663765 -34.25670468 -0.73338186 -30.27661037 -0.7946043 C-27.21146137 -0.84081876 -24.14625967 -0.88159419 -21.08101082 -0.92057228 C-19.61339615 -0.93959651 -18.14579808 -0.95995028 -16.67822075 -0.98166466 C-14.62721738 -1.01089003 -12.57625509 -1.03316354 -10.52514648 -1.0534668 C-9.35886215 -1.06741989 -8.19257782 -1.08137299 -6.99095154 -1.0957489 C-4.45402585 -1.01453466 -2.4081813 -0.75119932 0 0 Z " fill="#030303" transform="translate(232,336)"/>
<path d="M0 0 C0.5878125 0.2165625 1.175625 0.433125 1.78125 0.65625 C1.1625 0.73875 0.54375 0.82125 -0.09375 0.90625 C-2.91515174 1.90203885 -2.93802958 3.01947266 -4.21875 5.65625 C-5.86170195 7.01869796 -7.52699337 8.35489875 -9.21875 9.65625 C-10.67375399 12.56625797 -10.42772384 15.1651833 -10.46875 18.40625 C-10.49453125 19.61796875 -10.5203125 20.8296875 -10.546875 22.078125 C-10.12790023 26.64694515 -8.83272795 29.92728125 -5.68359375 33.30078125 C-1.02634752 36.86220483 1.03295721 37.78125972 6.86819458 37.81446838 C8.16672363 37.8242572 9.46525269 37.83404602 10.8031311 37.84413147 C12.25042688 37.85003607 13.69772304 37.85584649 15.14501953 37.86157227 C16.66253935 37.87114801 18.18005649 37.88115791 19.6975708 37.89157104 C23.82540276 37.91865911 27.95324619 37.93964751 32.08111811 37.95957303 C36.39198059 37.98140856 40.70280753 38.00880913 45.01364136 38.03562927 C53.18047739 38.08558913 61.34733311 38.13051572 69.51420772 38.17365164 C78.81035217 38.22299591 88.10646097 38.27792444 97.40257096 38.33333123 C116.52876422 38.44720181 135.65499111 38.55402977 154.78125 38.65625 C154.78125 38.98625 154.78125 39.31625 154.78125 39.65625 C142.16347066 39.78953282 129.54566552 39.92003793 116.92782497 40.04740143 C111.0629534 40.10667965 105.19809292 40.16676555 99.33325195 40.22900391 C84.60994236 40.38476419 69.88660518 40.5229444 55.16286469 40.63122559 C52.89437201 40.64801274 50.62588336 40.66535348 48.35739899 40.68322754 C41.72946938 40.73496152 35.10164985 40.77557441 28.47355843 40.79930115 C26.43400383 40.80799995 24.39446049 40.82009528 22.35494804 40.83583069 C19.54654944 40.85665468 16.7383974 40.86456007 13.92993164 40.86914062 C13.11612848 40.87787201 12.30232533 40.88660339 11.46386147 40.89559937 C5.60160719 40.88459041 -0.45721798 40.55266491 -5.42578125 37.140625 C-11.79322771 30.26192372 -13.82178773 25.28846669 -13.5625 15.78125 C-12.80869953 8.92851843 -8.99926433 5.07889004 -4 0.625 C-2.21875 -0.34375 -2.21875 -0.34375 0 0 Z " fill="#919191" transform="translate(73.21875,257.34375)"/>
<path d="M0 0 C-1.22976562 0.37511719 -2.45953125 0.75023437 -3.7265625 1.13671875 C-5.35960742 1.65291111 -6.99240719 2.16987949 -8.625 2.6875 C-9.83736328 3.05391602 -9.83736328 3.05391602 -11.07421875 3.42773438 C-16.40908948 5.14096522 -20.06533995 6.96243346 -24 11 C-25.84269906 14.7130275 -26.26497816 17.77082919 -26.31884766 21.8918457 C-26.33871735 23.05267166 -26.35858704 24.21349762 -26.37905884 25.40950012 C-26.39061005 26.65237289 -26.40216125 27.89524567 -26.4140625 29.17578125 C-26.43342865 30.45607712 -26.4527948 31.73637299 -26.4727478 33.0554657 C-26.52393948 36.4468778 -26.56363407 39.83832945 -26.60089111 43.22991943 C-26.64101249 46.6956958 -26.69206758 50.16130948 -26.7421875 53.62695312 C-26.83818145 60.41786395 -26.92324652 67.20884594 -27 74 C-26.17394257 73.99555878 -25.34788513 73.99111755 -24.49679565 73.98654175 C-16.69912115 73.94641144 -8.90148151 73.91598837 -1.10372734 73.89637566 C2.90485171 73.8859535 6.91334519 73.87182304 10.921875 73.84912109 C14.79277255 73.82733665 18.66358795 73.81541958 22.53454208 73.81024551 C24.00887214 73.8065598 25.48319788 73.79936252 26.95749283 73.78853989 C29.02791186 73.77395028 31.09799458 73.77202514 33.16845703 73.77294922 C34.34538116 73.768508 35.5223053 73.76406677 36.7348938 73.75949097 C40.1218272 74.00897384 42.83934262 74.78905133 46 76 C46 76.33 46 76.66 46 77 C36.9595043 77.04637095 27.91904963 77.08189339 18.87846088 77.10362434 C14.68040575 77.11405489 10.48243208 77.12820077 6.28442383 77.15087891 C2.23198332 77.17263329 -1.8203789 77.18457411 -5.87287331 77.18975449 C-7.41780644 77.19344558 -8.96273537 77.20065338 -10.50763512 77.21146011 C-12.6740477 77.22600965 -14.8401381 77.22797651 -17.0065918 77.22705078 C-18.23903122 77.231492 -19.47147064 77.23593323 -20.74125671 77.24050903 C-23.92531527 77.00551205 -26.13763961 76.3678439 -29 75 C-29.05084651 67.17125227 -29.08579517 59.34254739 -29.10986328 51.51367188 C-29.11876745 48.85213452 -29.13353257 46.19081385 -29.15087891 43.52929688 C-29.17522721 39.69658698 -29.18650621 35.86402332 -29.1953125 32.03125 C-29.20563507 30.84760864 -29.21595764 29.66396729 -29.22659302 28.44445801 C-29.228492 14.35808574 -29.228492 14.35808574 -25.58203125 8.86328125 C-19.3898265 3.43655876 -8.35779321 -2.55617925 0 0 Z " fill="#232323" transform="translate(131,142)"/>
<path d="M0 0 C7.10258662 0.11728874 14.20501125 0.24212465 21.30737305 0.37231445 C23.72563639 0.41573878 26.1439319 0.45740812 28.56225586 0.49731445 C32.02988396 0.55483603 35.49734903 0.61858187 38.96484375 0.68359375 C40.59763527 0.70866249 40.59763527 0.70866249 42.26341248 0.73423767 C43.76485558 0.7641555 43.76485558 0.7641555 45.29663086 0.79467773 C46.18265488 0.81022202 47.06867889 0.8257663 47.98155212 0.84178162 C50 1 50 1 51 2 C51.12599397 4.56111371 51.18868259 7.0937143 51.203125 9.65625 C51.20882507 10.43254761 51.21452515 11.20884521 51.22039795 12.00866699 C51.22986878 13.65973543 51.23639016 15.31082294 51.24023438 16.96191406 C51.24985355 19.46193825 51.28081901 21.96110958 51.3125 24.4609375 C51.3878318 35.62426921 51.09078849 44.47187159 43 53 C42.01 52.505 42.01 52.505 41 52 C42.23697917 50.6328125 43.47395833 49.265625 44.7109375 47.8984375 C48.18918967 42.77592067 48.32558144 37.28248581 48.4140625 31.3203125 C48.43342865 30.50754852 48.4527948 29.69478455 48.4727478 28.85739136 C48.53217883 26.28003188 48.57878181 23.70262685 48.625 21.125 C48.66321343 19.36977298 48.70226709 17.61456403 48.7421875 15.859375 C48.83784999 11.57306476 48.92201449 7.28666681 49 3 C48.43037033 3.00222061 47.86074066 3.00444122 47.27384949 3.00672913 C41.35306423 3.02882725 35.43229066 3.04392559 29.51147461 3.05493164 C27.30085779 3.059965 25.09024431 3.06679217 22.87963867 3.07543945 C19.704907 3.08754859 16.53021928 3.09323825 13.35546875 3.09765625 C12.36475876 3.10281754 11.37404877 3.10797882 10.35331726 3.11329651 C9.43258926 3.11337204 8.51186127 3.11344757 7.56323242 3.11352539 C6.34744759 3.11685631 6.34744759 3.11685631 5.10710144 3.12025452 C3 3 3 3 0 2 C0 1.34 0 0.68 0 0 Z " fill="#333333" transform="translate(363,319)"/>
<path d="M0 0 C-2.82185418 1.41092709 -5.18634926 1.1325354 -8.34228516 1.1418457 C-8.99296967 1.14532013 -9.64365417 1.14879456 -10.3140564 1.15237427 C-11.72944914 1.15973288 -13.14485344 1.1650777 -14.56026077 1.16866493 C-16.80584275 1.17583483 -19.05120675 1.19150769 -21.29672241 1.21000671 C-27.68232119 1.2624332 -34.0678042 1.31039285 -40.45361328 1.32592773 C-44.35948939 1.33605258 -48.26482199 1.36549552 -52.17048264 1.40724754 C-53.65426889 1.41950477 -55.13813213 1.42468849 -56.62196732 1.42244911 C-64.60711859 1.41336857 -71.17269256 1.43953506 -78 6 C-83.16370344 11.4354773 -84.46397281 15.80729115 -84.31640625 23.17578125 C-83.68695275 28.79423657 -81.53249594 32.61345606 -77.375 36.375 C-76.59125 36.91125 -75.8075 37.4475 -75 38 C-74.34 38.66 -73.68 39.32 -73 40 C-76.94004488 39.8806047 -78.92975283 38.43178287 -81.6875 35.8125 C-86.85559033 30.2511854 -87.42839051 25.01363026 -87.23828125 17.609375 C-86.63288919 10.97983577 -82.90423753 7.6695715 -78.1328125 3.515625 C-73.67315434 0.34649063 -69.75717501 -0.25894927 -64.34545898 -0.3347168 C-63.69766479 -0.34636871 -63.04987061 -0.35802063 -62.38244629 -0.37002563 C-60.25368775 -0.40583977 -58.12504222 -0.42782857 -55.99609375 -0.44921875 C-54.51065587 -0.47048746 -53.02522786 -0.49245543 -51.53981018 -0.51509094 C-48.43226563 -0.56040623 -45.32473133 -0.59922073 -42.21704102 -0.63305664 C-38.23671026 -0.67663765 -34.25670468 -0.73338186 -30.27661037 -0.7946043 C-27.21146137 -0.84081876 -24.14625967 -0.88159419 -21.08101082 -0.92057228 C-19.61339615 -0.93959651 -18.14579808 -0.95995028 -16.67822075 -0.98166466 C-14.62721738 -1.01089003 -12.57625509 -1.03316354 -10.52514648 -1.0534668 C-9.35886215 -1.06741989 -8.19257782 -1.08137299 -6.99095154 -1.0957489 C-4.45402585 -1.01453466 -2.4081813 -0.75119932 0 0 Z " fill="#0B0B0B" transform="translate(232,336)"/>
<path d="M0 0 C0.5878125 0.2165625 1.175625 0.433125 1.78125 0.65625 C1.1625 0.73875 0.54375 0.82125 -0.09375 0.90625 C-2.91515174 1.90203885 -2.93802958 3.01947266 -4.21875 5.65625 C-5.86170195 7.01869796 -7.52699337 8.35489875 -9.21875 9.65625 C-10.67375399 12.56625797 -10.42772384 15.1651833 -10.46875 18.40625 C-10.49453125 19.61796875 -10.5203125 20.8296875 -10.546875 22.078125 C-10.04433517 27.55820215 -8.31312517 30.65501314 -4.28125 34.34375 C-3.270625 35.106875 -2.26 35.87 -1.21875 36.65625 C-0.435 37.254375 0.34875 37.8525 1.15625 38.46875 C1.6925 38.860625 2.22875 39.2525 2.78125 39.65625 C-1.58930749 39.54965104 -3.84324084 38.42748651 -6.90625 35.46875 C-12.62442235 29.18129058 -13.79315477 24.23859139 -13.5625 15.78125 C-12.80869953 8.92851843 -8.99926433 5.07889004 -4 0.625 C-2.21875 -0.34375 -2.21875 -0.34375 0 0 Z " fill="#2A2A2A" transform="translate(73.21875,257.34375)"/>
<path d="M0 0 C0.99 0.33 1.98 0.66 3 1 C2.40832031 1.31710937 1.81664062 1.63421875 1.20703125 1.9609375 C-5.39494713 5.85965883 -8.21426965 9.91668564 -11 17 C-11.66 17 -12.32 17 -13 17 C-11.92144359 9.45010515 -7.8457218 5.45120021 -2 1 C-1.34 0.67 -0.68 0.34 0 0 Z " fill="#111111" transform="translate(158,337)"/>
<path d="M0 0 C3.44341912 1.14780637 4.52236136 2.72137069 6.7265625 5.5 C8.27936439 7.32906726 10.00854376 8.67236251 12 10 C6.98558397 9.848048 4.66645254 7.07298671 1.35546875 3.69140625 C0 2 0 2 0 0 Z " fill="#121212" transform="translate(147,366)"/>
</svg>
